<svg width="24" height="24" viewBox="0 0 24 24" fill="none" xmlns="http://www.w3.org/2000/svg">
<g id="alert">
<path id="Vector" d="M4.52341 18.6562C4.52341 19.0711 4.85857 19.4062 5.27341 19.4062H18.7265C19.1414 19.4062 19.4765 19.0711 19.4765 18.6562V13.1953C19.4765 9.06563 16.1297 5.71875 12 5.71875C7.87029 5.71875 4.52341 9.06563 4.52341 13.1953V18.6562ZM6.21091 13.1953C6.21091 9.99844 8.8031 7.40625 12 7.40625C15.1969 7.40625 17.789 9.99844 17.789 13.1953V17.7188H9.46873V13.7109C9.46873 13.582 9.36326 13.4766 9.23435 13.4766H8.2031C8.0742 13.4766 7.96873 13.582 7.96873 13.7109V17.7188H6.21091V13.1953ZM5.08357 7.27734L6.0117 6.34922C6.08435 6.27656 6.08435 6.15703 6.0117 6.08438L4.42029 4.49297C4.38505 4.45807 4.33746 4.4385 4.28787 4.4385C4.23827 4.4385 4.19069 4.45807 4.15545 4.49297L3.22732 5.42109C3.19243 5.45633 3.17285 5.50392 3.17285 5.55352C3.17285 5.60311 3.19243 5.6507 3.22732 5.68594L4.81873 7.27734C4.89138 7.35 5.00857 7.35 5.08357 7.27734ZM20.7773 5.42109L19.8492 4.49297C19.814 4.45807 19.7664 4.4385 19.7168 4.4385C19.6672 4.4385 19.6196 4.45807 19.5844 4.49297L17.9929 6.08438C17.9581 6.11962 17.9385 6.1672 17.9385 6.2168C17.9385 6.26639 17.9581 6.31398 17.9929 6.34922L18.9211 7.27734C18.9937 7.35 19.1133 7.35 19.1859 7.27734L20.7773 5.68594C20.85 5.61094 20.85 5.49375 20.7773 5.42109ZM19.5 20.9062H4.49998C4.08513 20.9062 3.74998 21.2414 3.74998 21.6562V22.2188C3.74998 22.3219 3.83435 22.4062 3.93748 22.4062H20.0625C20.1656 22.4062 20.25 22.3219 20.25 22.2188V21.6562C20.25 21.2414 19.9148 20.9062 19.5 20.9062ZM11.3437 4.21875H12.6562C12.7594 4.21875 12.8437 4.13438 12.8437 4.03125V1.78125C12.8437 1.67812 12.7594 1.59375 12.6562 1.59375H11.3437C11.2406 1.59375 11.1562 1.67812 11.1562 1.78125V4.03125C11.1562 4.13438 11.2406 4.21875 11.3437 4.21875Z" fill="#FF3B30"/>
</g>
</svg>
