<svg width="25" height="24" viewBox="0 0 25 24" fill="none" xmlns="http://www.w3.org/2000/svg">
<g id="arrow-left">
<path id="Vector" d="M20.6881 11.1094H6.97484L15.1826 3.98438C15.3139 3.86953 15.2342 3.65625 15.0608 3.65625H12.9866C12.8951 3.65625 12.8084 3.68906 12.7405 3.74766L3.88343 11.4328C3.80231 11.5031 3.73725 11.5901 3.69266 11.6877C3.64808 11.7854 3.625 11.8915 3.625 11.9988C3.625 12.1062 3.64808 12.2123 3.69266 12.3099C3.73725 12.4076 3.80231 12.4945 3.88343 12.5648L12.792 20.2969C12.8272 20.3273 12.8694 20.3438 12.9139 20.3438H15.0584C15.2319 20.3438 15.3116 20.1281 15.1803 20.0156L6.97484 12.8906H20.6881C20.7912 12.8906 20.8756 12.8062 20.8756 12.7031V11.2969C20.8756 11.1937 20.7912 11.1094 20.6881 11.1094Z" fill="#FF2D55"/>
</g>
</svg>
