<svg width="25" height="24" viewBox="0 0 25 24" fill="none" xmlns="http://www.w3.org/2000/svg">
<g id="arrow-right">
<path id="Vector" d="M21.1152 11.4328L12.2605 3.74766C12.1926 3.68906 12.1059 3.65625 12.0145 3.65625H9.94023C9.7668 3.65625 9.68711 3.87187 9.81836 3.98438L18.0262 11.1094H4.31055C4.20742 11.1094 4.12305 11.1937 4.12305 11.2969V12.7031C4.12305 12.8062 4.20742 12.8906 4.31055 12.8906H18.0238L9.81602 20.0156C9.68477 20.1305 9.76445 20.3438 9.93789 20.3438H12.0824C12.127 20.3438 12.1715 20.3273 12.2043 20.2969L21.1152 12.5672C21.1964 12.4966 21.2614 12.4095 21.306 12.3116C21.3506 12.2138 21.3737 12.1075 21.3737 12C21.3737 11.8925 21.3506 11.7862 21.306 11.6884C21.2614 11.5905 21.1964 11.5034 21.1152 11.4328Z" fill="#32ADE6"/>
</g>
</svg>
