<svg width="25" height="24" viewBox="0 0 25 24" fill="none" xmlns="http://www.w3.org/2000/svg">
<g>
<path d="M20.7035 10.9055H18.8051C18.6972 10.9055 18.5941 10.9523 18.5215 11.0344L13.391 16.9477V3.75C13.391 3.64687 13.3066 3.5625 13.2035 3.5625H11.7972C11.6941 3.5625 11.6097 3.64687 11.6097 3.75V16.9477L6.47927 11.0344C6.40896 10.9523 6.30583 10.9055 6.19568 10.9055H4.29724C4.13786 10.9055 4.05115 11.0953 4.15661 11.2148L11.9355 20.1797C12.0058 20.2608 12.0928 20.3259 12.1904 20.3705C12.2881 20.415 12.3942 20.4381 12.5015 20.4381C12.6089 20.4381 12.715 20.415 12.8126 20.3705C12.9103 20.3259 12.9972 20.2608 13.0676 20.1797L20.8441 11.2148C20.9496 11.093 20.8629 10.9055 20.7035 10.9055Z"/>
</g>
</svg>
