<svg width="17" height="16" viewBox="0 0 17 16" fill="none" xmlns="http://www.w3.org/2000/svg">
<g id="clock-circle">
<path id="Vector" d="M8.5 1C4.63438 1 1.5 4.13438 1.5 8C1.5 11.8656 4.63438 15 8.5 15C12.3656 15 15.5 11.8656 15.5 8C15.5 4.13438 12.3656 1 8.5 1ZM8.5 13.8125C5.29063 13.8125 2.6875 11.2094 2.6875 8C2.6875 4.79063 5.29063 2.1875 8.5 2.1875C11.7094 2.1875 14.3125 4.79063 14.3125 8C14.3125 11.2094 11.7094 13.8125 8.5 13.8125Z" fill="#8E8E93"/>
<path id="Vector_2" d="M11.2297 9.97811L9.00156 8.36718V4.5C9.00156 4.43125 8.94531 4.375 8.87656 4.375H8.125C8.05625 4.375 8 4.43125 8 4.5V8.80311C8 8.84374 8.01875 8.88124 8.05156 8.90467L10.6359 10.789C10.6922 10.8297 10.7703 10.8172 10.8109 10.7625L11.2578 10.1531C11.2984 10.0953 11.2859 10.0172 11.2297 9.97811Z" fill="#8E8E93"/>
</g>
</svg>
