<svg width="72" height="72" viewBox="0 0 72 72" fill="none" xmlns="http://www.w3.org/2000/svg">
<rect width="72" height="72" rx="36" fill="#EADDFF"/>
<path fill-rule="evenodd" clip-rule="evenodd" d="M46.7985 28.8C46.7985 34.7647 41.9632 39.6 35.9985 39.6C30.0338 39.6 25.1985 34.7647 25.1985 28.8C25.1985 22.8353 30.0338 18 35.9985 18C41.9632 18 46.7985 22.8353 46.7985 28.8ZM43.1985 28.8C43.1985 32.7765 39.9749 36 35.9985 36C32.022 36 28.7985 32.7765 28.7985 28.8C28.7985 24.8235 32.022 21.6 35.9985 21.6C39.9749 21.6 43.1985 24.8235 43.1985 28.8Z" fill="#4F378A"/>
<path d="M35.9985 45C24.3446 45 14.4152 51.8911 10.6328 61.5457C11.5542 62.4606 12.5249 63.3261 13.5404 64.1377C16.3569 55.2738 25.1926 48.6 35.9985 48.6C46.8044 48.6 55.6401 55.2739 58.4566 64.1377C59.4721 63.3261 60.4428 62.4607 61.3642 61.5457C57.5818 51.8912 47.6524 45 35.9985 45Z" fill="#4F378A"/>
</svg>
