<?xml version="1.0" encoding="UTF-8"?>
<svg id="_レイヤー_2" data-name="レイヤー 2" xmlns="http://www.w3.org/2000/svg" viewBox="0 0 96 96">
  <g>
    <path style="fill: #c1e6f7;" d="M29.87,30.36H13.5c-1.36,0-2.62.73-3.3,1.91l-8.19,14.18c-.68,1.18-.68,2.63,0,3.81l8.19,14.18c.68,1.18,1.94,1.91,3.3,1.91h16.37c1.36,0,2.62-.73,3.3-1.91l8.19-14.18c.68-1.18.68-2.63,0-3.81l-8.19-14.18c-.68-1.18-1.94-1.91-3.3-1.91Z"/>
    <path style="fill: #ffc4c0;" d="M74.61,56.35h-16.37c-1.36,0-2.62.73-3.3,1.91l-8.19,14.18c-.68,1.18-.68,2.63,0,3.81l8.19,14.18c.68,1.18,1.94,1.91,3.3,1.91h16.37c1.36,0,2.62-.73,3.3-1.91l8.19-14.18c.68-1.18.68-2.63,0-3.81l-8.19-14.18c-.68-1.18-1.94-1.91-3.3-1.91Z"/>
    <path style="fill: #ceccf3;"  d="M76.39,3.66h-16.37c-1.36,0-2.62.73-3.3,1.91l-8.19,14.18c-.68,1.18-.68,2.63,0,3.81l8.19,14.18c.68,1.18,1.94,1.91,3.3,1.91h16.37c1.36,0,2.62-.73,3.3-1.91l8.19-14.18c.68-1.18.68-2.63,0-3.81l-8.19-14.18c-.68-1.18-1.94-1.91-3.3-1.91Z"/>
  </g>
  <g>
    <path style="fill: #5856d6;" d="M49.44,49.15h-16.37c-1.36,0-2.62.73-3.3,1.91l-8.19,14.18c-.68,1.18-.68,2.63,0,3.81l8.19,14.18c.68,1.18,1.94,1.91,3.3,1.91h16.37c1.36,0,2.62-.73,3.3-1.91l8.19-14.18c.68-1.18.68-2.63,0-3.81l-8.19-14.18c-.68-1.18-1.94-1.91-3.3-1.91Z"/>
    <path style="fill: #ff3b30;" d="M49.39,10.86h-16.37c-1.36,0-2.62.73-3.3,1.91l-8.19,14.18c-.68,1.18-.68,2.63,0,3.81l8.19,14.18c.68,1.18,1.94,1.91,3.3,1.91h16.37c1.36,0,2.62-.73,3.3-1.91l8.19-14.18c.68-1.18.68-2.63,0-3.81l-8.19-14.18c-.68-1.18-1.94-1.91-3.3-1.91Z"/>
    <path style="fill: #32ade6;" d="M82.5,29.92h-16.37c-1.36,0-2.62.73-3.3,1.91l-8.19,14.18c-.68,1.18-.68,2.63,0,3.81l8.19,14.18c.68,1.18,1.94,1.91,3.3,1.91h16.37c1.36,0,2.62-.73,3.3-1.91l8.19-14.18c.68-1.18.68-2.63,0-3.81l-8.19-14.18c-.68-1.18-1.94-1.91-3.3-1.91Z"/>
  </g>
</svg>