<svg width="18" height="18" viewBox="0 0 18 18" fill="none" xmlns="http://www.w3.org/2000/svg">
<g id="home">
<path id="Vector" d="M16.6372 8.87651L9.84499 2.08784L9.38972 1.63256C9.28599 1.52951 9.1457 1.47168 8.99949 1.47168C8.85327 1.47168 8.71299 1.52951 8.60925 1.63256L1.36179 8.87651C1.2555 8.98239 1.17149 9.10849 1.11473 9.24736C1.05798 9.38624 1.02961 9.53508 1.03132 9.6851C1.03835 10.3039 1.55339 10.7978 2.17214 10.7978H2.91921V16.523H15.0798V10.7978H15.8426C16.1432 10.7978 16.4262 10.68 16.6389 10.4673C16.7437 10.3629 16.8266 10.2388 16.8831 10.1021C16.9395 9.96543 16.9682 9.81891 16.9676 9.67104C16.9676 9.37221 16.8499 9.0892 16.6372 8.87651ZM9.98386 15.2574H8.01511V11.6714H9.98386V15.2574ZM13.8141 9.53217V15.2574H11.1089V11.2496C11.1089 10.8611 10.7942 10.5464 10.4057 10.5464H7.59324C7.20476 10.5464 6.89011 10.8611 6.89011 11.2496V15.2574H4.18484V9.53217H2.49734L9.00124 3.03354L9.4073 3.43959L15.5034 9.53217H13.8141Z" fill="#007AFF"/>
</g>
</svg>
