<svg width="24" height="24" viewBox="0 0 24 24" xmlns="http://www.w3.org/2000/svg">
<g id="link">
<path id="Vector" d="M13.4528 15.5965C13.4176 15.5616 13.37 15.542 13.3204 15.542C13.2708 15.542 13.2232 15.5616 13.188 15.5965L10.4646 18.3199C9.20361 19.5809 7.07549 19.7145 5.6833 18.3199C4.28877 16.9254 4.42236 14.7996 5.6833 13.5387L8.40674 10.8152C8.47939 10.7426 8.47939 10.623 8.40674 10.5504L7.47393 9.61758C7.43869 9.58268 7.3911 9.56311 7.3415 9.56311C7.29191 9.56311 7.24432 9.58268 7.20908 9.61758L4.48564 12.341C2.50283 14.3238 2.50283 17.5324 4.48564 19.5129C6.46846 21.4934 9.67705 21.4957 11.6575 19.5129L14.381 16.7895C14.4536 16.7168 14.4536 16.5973 14.381 16.5246L13.4528 15.5965ZM19.5138 4.48711C17.531 2.5043 14.3224 2.5043 12.3419 4.48711L9.61611 7.21055C9.58122 7.24579 9.56164 7.29338 9.56164 7.34297C9.56164 7.39256 9.58122 7.44015 9.61611 7.47539L10.5466 8.40586C10.6192 8.47852 10.7388 8.47852 10.8114 8.40586L13.5349 5.68242C14.7958 4.42148 16.9239 4.28789 18.3161 5.68242C19.7106 7.07695 19.5771 9.20273 18.3161 10.4637L15.5927 13.1871C15.5578 13.2224 15.5382 13.2699 15.5382 13.3195C15.5382 13.3691 15.5578 13.4167 15.5927 13.452L16.5255 14.3848C16.5981 14.4574 16.7177 14.4574 16.7903 14.3848L19.5138 11.6613C21.4942 9.67852 21.4942 6.46992 19.5138 4.48711ZM14.2989 8.72695C14.2637 8.69206 14.2161 8.67248 14.1665 8.67248C14.1169 8.67248 14.0693 8.69206 14.0341 8.72695L8.72549 14.0332C8.69059 14.0684 8.67102 14.116 8.67102 14.1656C8.67102 14.2152 8.69059 14.2628 8.72549 14.298L9.65361 15.2262C9.72627 15.2988 9.8458 15.2988 9.91846 15.2262L15.2247 9.91992C15.2974 9.84727 15.2974 9.72774 15.2247 9.65508L14.2989 8.72695Z" />
</g>
</svg>
