<svg width="17" height="16" viewBox="0 0 17 16" fill="none" xmlns="http://www.w3.org/2000/svg">
<g id="message">
<path id="Vector" d="M7.5831 8C7.5831 8.19891 7.66211 8.38968 7.80277 8.53033C7.94342 8.67098 8.13418 8.75 8.3331 8.75C8.53201 8.75 8.72277 8.67098 8.86343 8.53033C9.00408 8.38968 9.0831 8.19891 9.0831 8C9.0831 7.80109 9.00408 7.61032 8.86343 7.46967C8.72277 7.32902 8.53201 7.25 8.3331 7.25C8.13418 7.25 7.94342 7.32902 7.80277 7.46967C7.66211 7.61032 7.5831 7.80109 7.5831 8ZM10.7081 8C10.7081 8.19891 10.7871 8.38968 10.9278 8.53033C11.0684 8.67098 11.2592 8.75 11.4581 8.75C11.657 8.75 11.8478 8.67098 11.9884 8.53033C12.1291 8.38968 12.2081 8.19891 12.2081 8C12.2081 7.80109 12.1291 7.61032 11.9884 7.46967C11.8478 7.32902 11.657 7.25 11.4581 7.25C11.2592 7.25 11.0684 7.32902 10.9278 7.46967C10.7871 7.61032 10.7081 7.80109 10.7081 8ZM4.4581 8C4.4581 8.19891 4.53711 8.38968 4.67777 8.53033C4.81842 8.67098 5.00918 8.75 5.2081 8.75C5.40701 8.75 5.59777 8.67098 5.73843 8.53033C5.87908 8.38968 5.9581 8.19891 5.9581 8C5.9581 7.80109 5.87908 7.61032 5.73843 7.46967C5.59777 7.32902 5.40701 7.25 5.2081 7.25C5.00918 7.25 4.81842 7.32902 4.67777 7.46967C4.53711 7.61032 4.4581 7.80109 4.4581 8ZM14.7893 5.2875C14.4362 4.44844 13.93 3.69531 13.2847 3.04844C12.6439 2.40531 11.8832 1.8941 11.0456 1.54375C10.1862 1.18281 9.27372 1 8.3331 1H8.30185C7.35497 1.00469 6.43778 1.19219 5.57528 1.56094C4.7449 1.91488 3.99132 2.427 3.35653 3.06875C2.71747 3.71406 2.21591 4.46406 1.86903 5.3C1.50966 6.16563 1.32841 7.08594 1.3331 8.03281C1.3384 9.11792 1.59511 10.187 2.0831 11.1562V13.5312C2.0831 13.7219 2.15882 13.9047 2.29361 14.0395C2.42841 14.1743 2.61122 14.25 2.80185 14.25H5.17841C6.14762 14.738 7.21674 14.9947 8.30185 15H8.33466C9.2706 15 10.1784 14.8188 11.0331 14.4641C11.8664 14.1179 12.6243 13.6126 13.2643 12.9766C13.9097 12.3375 14.4175 11.5906 14.7722 10.7578C15.1409 9.89531 15.3284 8.97813 15.3331 8.03125C15.3378 7.07969 15.1534 6.15625 14.7893 5.2875ZM12.4284 12.1313C11.3331 13.2156 9.87997 13.8125 8.3331 13.8125H8.30653C7.36435 13.8078 6.42841 13.5734 5.60185 13.1328L5.4706 13.0625H3.2706V10.8625L3.20028 10.7312C2.75966 9.90469 2.52528 8.96875 2.5206 8.02656C2.51435 6.46875 3.10966 5.00625 4.20185 3.90469C5.29247 2.80312 6.75028 2.19375 8.3081 2.1875H8.33466C9.11591 2.1875 9.87372 2.33906 10.5878 2.63906C11.2847 2.93125 11.9097 3.35156 12.4472 3.88906C12.9831 4.425 13.405 5.05156 13.6972 5.74844C14.0003 6.47031 14.1518 7.23594 14.1487 8.02656C14.1393 9.58281 13.5284 11.0406 12.4284 12.1313Z" fill="#007AFF"/>
</g>
</svg>
