<svg width="24" height="24" viewBox="0 0 24 24" fill="none" xmlns="http://www.w3.org/2000/svg">
<g id="notification">
<path id="Vector" d="M20.5395 3.14287L20.5429 3.14149C20.5719 3.12958 20.5986 3.125 20.625 3.125C20.7426 3.125 20.8759 3.22964 20.8773 3.40465V20.5992C20.8773 20.7714 20.7443 20.8773 20.6273 20.8773C20.6091 20.8773 20.5795 20.8735 20.5378 20.8578L10.9653 17.0111L10.4438 16.8015L10.2964 17.3439C10.0307 18.322 9.12986 19.0469 8.0625 19.0469C6.78517 19.0469 5.75 18.0126 5.75 16.7461C5.75 16.5063 5.7884 16.2692 5.85995 16.0449L6.0679 15.393H5.38359H3.125V8.60703H6.84375H6.94044L7.03017 8.57098L20.5395 3.14287ZM7.38167 15.5696L7.0445 15.4342L6.81157 15.7131C6.56998 16.0023 6.4375 16.3665 6.4375 16.7461C6.4375 17.643 7.1673 18.3664 8.0625 18.3664C8.91605 18.3664 9.61574 17.707 9.68351 16.8733L9.71336 16.5061L9.37151 16.3688L7.38167 15.5696ZM19.5011 19.6991L20.1875 19.9749V19.2352V4.76484V4.02512L19.5011 4.30089L7.28547 9.2087L7.28494 9.20891L7.07255 9.29453H4.3125H3.8125V9.79453V14.2055V14.7055H4.3125H7.07255L7.28494 14.7911L7.28547 14.7913L19.5011 19.6991Z" />
</g>
</svg>
