<svg width="21" height="21" viewBox="0 0 21 21" fill="none" xmlns="http://www.w3.org/2000/svg">
<g id="paper-plane" clip-path="url(#clip0_1235_23121)">
<path id="Vector" d="M18.1243 1.51225C18.2804 1.42251 18.4442 1.38015 18.6038 1.37718L18.188 1.61709L1.93799 10.9921L1.51525 11.236C1.5977 11.0969 1.71743 10.9741 1.8756 10.8826C1.8757 10.8825 1.8758 10.8825 1.8759 10.8824L18.124 1.51241C18.1241 1.51236 18.1242 1.5123 18.1243 1.51225ZM1.99257 12.671C1.82611 12.6027 1.69248 12.4985 1.59281 12.3732L2.04074 12.5585L6.25167 14.3007L6.75245 14.5079L7.16103 14.1519L13.9157 8.26584L9.57794 14.525L8.95928 15.4177L9.96319 15.8322L15.971 18.3127L16.4185 18.4974C16.3808 18.5017 16.3429 18.5039 16.3049 18.5039C16.1767 18.5039 16.0471 18.4793 15.9216 18.4285C15.921 18.4282 15.9204 18.428 15.9198 18.4278L11.5529 16.6248L10.9223 16.3644L10.516 16.9126L8.80555 19.2205C8.69397 19.3708 8.55768 19.4764 8.41047 19.5419L8.70381 19.1452L10.1335 17.2116L10.8001 16.3101L9.76364 15.8825L8.33396 15.2927L7.12525 14.794V16.1016V18.625V19.1158C7.04649 18.9758 7.00025 18.8106 7.00025 18.625V15.3281V14.7432L6.45983 14.5196L1.99499 12.672L1.99257 12.671ZM17.2959 17.6539C17.2685 17.8242 17.1986 17.9825 17.0964 18.1149L17.1698 17.6365L19.4901 2.50765L19.564 2.02589C19.6219 2.1781 19.6433 2.34953 19.6158 2.53172C19.6157 2.53197 19.6157 2.53223 19.6156 2.53248L17.2962 17.652C17.2961 17.6526 17.296 17.6533 17.2959 17.6539Z" fill="black" stroke="white" stroke-width="1.75"/>
</g>
<defs>
<clipPath id="clip0_1235_23121">
<rect width="20" height="20" fill="white" transform="translate(0.5 0.5)"/>
</clipPath>
</defs>
</svg>
