<svg width="19" height="19" viewBox="0 0 19 19" fill="none" xmlns="http://www.w3.org/2000/svg">
<path d="M0.999647 19C1.07936 19.0097 1.15994 19.0097 1.23965 19L5.23965 18C5.41709 17.9578 5.57962 17.8679 5.70965 17.74L17.9996 5.41003C18.3721 5.0353 18.5812 4.5284 18.5812 4.00003C18.5812 3.47165 18.3721 2.96475 17.9996 2.59003L16.4196 1.00003C16.2339 0.814073 16.0133 0.666555 15.7705 0.565906C15.5277 0.465257 15.2675 0.413452 15.0046 0.413452C14.7418 0.413452 14.4816 0.465257 14.2388 0.565906C13.996 0.666555 13.7754 0.814073 13.5896 1.00003L1.29965 13.29C1.17044 13.4206 1.07739 13.5826 1.02965 13.76L0.0296471 17.76C-0.006295 17.8894 -0.0158081 18.0247 0.00167537 18.1579C0.0191588 18.291 0.0632806 18.4193 0.131409 18.535C0.199537 18.6507 0.290275 18.7515 0.398212 18.8314C0.506148 18.9113 0.629071 18.9687 0.759647 19C0.839357 19.0097 0.919937 19.0097 0.999647 19ZM14.9996 2.41003L16.5896 4.00003L14.9996 5.59003L13.4196 4.00003L14.9996 2.41003ZM2.90965 14.51L11.9996 5.41003L13.5896 7.00003L4.48965 16.1L2.37965 16.62L2.90965 14.51Z" fill="#8E8E93"/>
</svg>
