<svg width="14" height="14" viewBox="0 0 14 14" fill="none" xmlns="http://www.w3.org/2000/svg">
<g clip-path="url(#clip0_1227_24417)">
<mask id="path-1-inside-1_1227_24417" fill="white">
<path d="M9.51562 6.5625H7.4375V4.48438C7.4375 4.42422 7.38828 4.375 7.32812 4.375H6.67188C6.61172 4.375 6.5625 4.42422 6.5625 4.48438V6.5625H4.48438C4.42422 6.5625 4.375 6.61172 4.375 6.67188V7.32812C4.375 7.38828 4.42422 7.4375 4.48438 7.4375H6.5625V9.51562C6.5625 9.57578 6.61172 9.625 6.67188 9.625H7.32812C7.38828 9.625 7.4375 9.57578 7.4375 9.51562V7.4375H9.51562C9.57578 7.4375 9.625 7.38828 9.625 7.32812V6.67188C9.625 6.61172 9.57578 6.5625 9.51562 6.5625Z"/>
</mask>
<path d="M9.51562 6.5625H7.4375V4.48438C7.4375 4.42422 7.38828 4.375 7.32812 4.375H6.67188C6.61172 4.375 6.5625 4.42422 6.5625 4.48438V6.5625H4.48438C4.42422 6.5625 4.375 6.61172 4.375 6.67188V7.32812C4.375 7.38828 4.42422 7.4375 4.48438 7.4375H6.5625V9.51562C6.5625 9.57578 6.61172 9.625 6.67188 9.625H7.32812C7.38828 9.625 7.4375 9.57578 7.4375 9.51562V7.4375H9.51562C9.57578 7.4375 9.625 7.38828 9.625 7.32812V6.67188C9.625 6.61172 9.57578 6.5625 9.51562 6.5625Z" fill="white"/>
<path d="M7.4375 6.5625H6.1875V7.8125H7.4375V6.5625ZM6.5625 6.5625V7.8125H7.8125V6.5625H6.5625ZM6.5625 7.4375H7.8125V6.1875H6.5625V7.4375ZM7.4375 7.4375V6.1875H6.1875V7.4375H7.4375ZM9.51562 5.3125H7.4375V7.8125H9.51562V5.3125ZM8.6875 6.5625V4.48438H6.1875V6.5625H8.6875ZM8.6875 4.48438C8.6875 3.73386 8.07864 3.125 7.32812 3.125V5.625C6.69793 5.625 6.1875 5.11457 6.1875 4.48438H8.6875ZM7.32812 3.125H6.67188V5.625H7.32812V3.125ZM6.67188 3.125C5.92136 3.125 5.3125 3.73386 5.3125 4.48438H7.8125C7.8125 5.11457 7.30207 5.625 6.67188 5.625V3.125ZM5.3125 4.48438V6.5625H7.8125V4.48438H5.3125ZM6.5625 5.3125H4.48438V7.8125H6.5625V5.3125ZM4.48438 5.3125C3.73386 5.3125 3.125 5.92136 3.125 6.67188H5.625C5.625 7.30207 5.11457 7.8125 4.48438 7.8125V5.3125ZM3.125 6.67188V7.32812H5.625V6.67188H3.125ZM3.125 7.32812C3.125 8.07864 3.73386 8.6875 4.48438 8.6875V6.1875C5.11457 6.1875 5.625 6.69793 5.625 7.32812H3.125ZM4.48438 8.6875H6.5625V6.1875H4.48438V8.6875ZM5.3125 7.4375V9.51562H7.8125V7.4375H5.3125ZM5.3125 9.51562C5.3125 10.2661 5.92136 10.875 6.67188 10.875V8.375C7.30207 8.375 7.8125 8.88543 7.8125 9.51562H5.3125ZM6.67188 10.875H7.32812V8.375H6.67188V10.875ZM7.32812 10.875C8.07864 10.875 8.6875 10.2661 8.6875 9.51562H6.1875C6.1875 8.88543 6.69793 8.375 7.32812 8.375V10.875ZM8.6875 9.51562V7.4375H6.1875V9.51562H8.6875ZM7.4375 8.6875H9.51562V6.1875H7.4375V8.6875ZM9.51562 8.6875C10.2661 8.6875 10.875 8.07864 10.875 7.32812H8.375C8.375 6.69793 8.88543 6.1875 9.51562 6.1875V8.6875ZM10.875 7.32812V6.67188H8.375V7.32812H10.875ZM10.875 6.67188C10.875 5.92136 10.2661 5.3125 9.51562 5.3125V7.8125C8.88543 7.8125 8.375 7.30207 8.375 6.67188H10.875Z" fill="white" mask="url(#path-1-inside-1_1227_24417)"/>
<path d="M7 0.875C3.61758 0.875 0.875 3.61758 0.875 7C0.875 10.3824 3.61758 13.125 7 13.125C10.3824 13.125 13.125 10.3824 13.125 7C13.125 3.61758 10.3824 0.875 7 0.875ZM7 12.0859C4.1918 12.0859 1.91406 9.8082 1.91406 7C1.91406 4.1918 4.1918 1.91406 7 1.91406C9.8082 1.91406 12.0859 4.1918 12.0859 7C12.0859 9.8082 9.8082 12.0859 7 12.0859Z" fill="white"/>
</g>
<defs>
<clipPath id="clip0_1227_24417">
<rect width="14" height="14" fill="white"/>
</clipPath>
</defs>
</svg>
