<svg width="77" height="78" viewBox="0 0 77 78" fill="none" xmlns="http://www.w3.org/2000/svg">
<g id="260-point-up" clip-path="url(#clip0_682_15652)">
<path id="Vector" d="M62.3425 31.2968L57.9675 23.7191C56.5202 21.2124 53.3025 20.3502 50.7958 21.7975C49.9865 22.2647 49.3482 22.9161 48.9027 23.6705C47.3637 22.8737 45.4651 22.8544 43.8587 23.7819C42.6947 24.4539 41.8876 25.5059 41.4978 26.6928C40.2751 26.4369 38.9604 26.6099 37.7965 27.2819C37.266 27.5882 36.8063 27.9748 36.4314 28.4176L30.1559 17.5481C28.7087 15.0414 25.491 14.1792 22.9843 15.6265C20.4776 17.0737 19.6154 20.2914 21.0627 22.7981L31.8549 41.4908L20.9539 41.8597C20.0366 41.8599 19.1291 42.101 18.3289 42.563C15.8221 44.0102 14.96 47.2279 16.4072 49.7346C17.1282 50.9834 18.2973 51.8604 19.6981 52.2075C19.7172 52.2126 19.7346 52.2147 19.7537 52.2199L37.0431 56.007L34.891 57.2495C34.0545 57.7325 33.7675 58.8035 34.2505 59.6401L39.5005 68.7333C39.9835 69.5699 41.0545 69.8569 41.891 69.3739L72.2019 51.8739C73.0385 51.3909 73.3255 50.3199 72.8425 49.4833L67.5925 40.3901C67.1095 39.5535 66.0385 39.2665 65.2019 39.7495L63.1074 40.9588L62.5738 32.0685C62.5592 31.7981 62.479 31.5332 62.3425 31.2968ZM66.3114 45.1712C66.7944 46.0077 66.5074 47.0787 65.6708 47.5617C64.8343 48.0447 63.7633 47.7577 63.2803 46.9212C62.7973 46.0846 63.0843 45.0136 63.9208 44.5306C64.7574 44.0476 65.8284 44.3346 66.3114 45.1712ZM59.1049 32.6891L59.7187 42.9153L41.5412 53.41L20.5177 48.8042C20.0575 48.686 19.6763 48.3969 19.4383 47.9846C18.9553 47.1481 19.2423 46.0771 20.0789 45.5941C20.3365 45.4453 20.617 45.3642 20.91 45.3607C20.943 45.3619 20.9791 45.3613 21.0103 45.3594L34.8846 44.8904C35.4997 44.8708 36.0578 44.5284 36.3549 43.9931C36.6521 43.4578 36.6487 42.8009 36.3407 42.2675L24.0907 21.0498C23.6077 20.2133 23.8947 19.1423 24.7313 18.6593C25.5679 18.1763 26.6388 18.4633 27.1218 19.2998L35.8718 34.4553C36.3548 35.2919 37.4258 35.5788 38.2624 35.0958C39.0989 34.6128 39.3859 33.5419 38.9029 32.7053C38.4199 31.8687 38.7069 30.7977 39.5434 30.3147C40.38 29.8317 41.451 30.1187 41.934 30.9553C42.417 31.7919 43.488 32.0788 44.3245 31.5958C45.1611 31.1128 45.4481 30.0419 44.9651 29.2053C44.4821 28.3687 44.769 27.2977 45.6056 26.8147C46.4422 26.3317 47.5132 26.6187 47.9962 27.4553L48.8712 28.9708C49.3542 29.8074 50.4251 30.0944 51.2617 29.6114C52.0983 29.1284 52.3853 28.0574 51.9023 27.2208C51.4193 26.3843 51.7062 25.3133 52.5428 24.8303C53.3794 24.3473 54.4503 24.6343 54.9333 25.4708L59.1018 32.6909L59.1049 32.6891Z" fill="url(#paint0_linear_682_15652)"/>
</g>
<defs>
<linearGradient id="paint0_linear_682_15652" x1="17.2822" y1="51.2502" x2="59.7175" y2="26.7502" gradientUnits="userSpaceOnUse">
<stop stop-color="#FF3B30"/>
<stop offset="0.5" stop-color="#5856D6"/>
<stop offset="1" stop-color="#32ADE6"/>
</linearGradient>
<clipPath id="clip0_682_15652">
<rect width="56" height="56" fill="white" transform="translate(0.250977 28.7515) rotate(-30)"/>
</clipPath>
</defs>
</svg>
