<svg width="18" height="18" viewBox="0 0 18 18" fill="none" xmlns="http://www.w3.org/2000/svg">
<g id="pushpin">
<path id="Vector" d="M15.4389 6.89238L11.1076 2.56113C10.9934 2.44687 10.844 2.39062 10.6946 2.39062C10.5451 2.39062 10.3957 2.44687 10.2815 2.56113L7.44963 5.39473C7.23518 5.37012 7.01897 5.35957 6.80275 5.35957C5.51604 5.35957 4.22932 5.7832 3.17287 6.63047C3.1089 6.68184 3.05646 6.74611 3.01898 6.81909C2.9815 6.89207 2.95982 6.97213 2.95534 7.05406C2.95086 7.13598 2.96369 7.21793 2.99299 7.29456C3.0223 7.37119 3.06742 7.44079 3.12541 7.49883L6.31936 10.6928L2.53303 14.4756C2.48663 14.5217 2.45799 14.5827 2.45217 14.6479L2.3924 15.3018C2.37658 15.467 2.50842 15.6076 2.6719 15.6076C2.68068 15.6076 2.68947 15.6076 2.69826 15.6059L3.35217 15.5461C3.41721 15.5408 3.47873 15.5109 3.52443 15.4652L7.31076 11.6789L10.5047 14.8729C10.619 14.9871 10.7684 15.0434 10.9178 15.0434C11.0883 15.0434 11.2571 14.9695 11.3731 14.8254C12.3627 13.5897 12.774 12.0428 12.6071 10.5469L15.4389 7.71504C15.6656 7.49004 15.6656 7.1209 15.4389 6.89238ZM11.7106 9.65566L11.2799 10.0863L11.3467 10.691C11.4514 11.6263 11.2648 12.5711 10.8123 13.3963L4.60549 7.18594C4.83225 7.06113 5.06779 6.95566 5.31389 6.87129C5.79201 6.70606 6.29299 6.62344 6.80275 6.62344C6.9715 6.62344 7.14201 6.63223 7.31076 6.65156L7.91545 6.71836L8.34611 6.2877L10.6963 3.9375L14.0625 7.30371L11.7106 9.65566Z" fill="#007AFF"/>
</g>
</svg>
