<svg width="20" height="22" viewBox="0 0 20 22" fill="none" xmlns="http://www.w3.org/2000/svg">
<path d="M19.6758 13.6634L18.1406 12.3509C18.2133 11.9055 18.2508 11.4509 18.2508 10.9962C18.2508 10.5415 18.2133 10.0868 18.1406 9.64148L19.6758 8.32898C19.7916 8.22985 19.8745 8.09783 19.9134 7.95046C19.9523 7.80309 19.9455 7.64736 19.8938 7.50398L19.8727 7.44304C19.45 6.26185 18.8172 5.16687 18.0047 4.21101L17.9625 4.16179C17.8639 4.0459 17.7326 3.96259 17.5857 3.92284C17.4389 3.88309 17.2834 3.88878 17.1398 3.93914L15.2344 4.61648C14.5313 4.03992 13.7461 3.58523 12.8977 3.26648L12.5297 1.27429C12.5019 1.12439 12.4292 0.986485 12.3212 0.878896C12.2132 0.771307 12.075 0.699128 11.925 0.671948L11.8617 0.660229C10.6406 0.439917 9.35625 0.439917 8.13516 0.660229L8.07188 0.671948C7.92187 0.699128 7.78368 0.771307 7.67568 0.878896C7.56767 0.986485 7.49495 1.12439 7.46719 1.27429L7.09688 3.27585C6.25521 3.59467 5.47141 4.04912 4.77657 4.62117L2.85704 3.93914C2.71352 3.88838 2.55795 3.88249 2.41101 3.92226C2.26407 3.96203 2.1327 4.04558 2.03438 4.16179L1.99219 4.21101C1.18066 5.16755 0.547917 6.26235 0.124224 7.44304L0.10313 7.50398C-0.00233904 7.79695 0.0843798 8.12507 0.321099 8.32898L1.875 9.65554C1.80235 10.0962 1.76719 10.5462 1.76719 10.9938C1.76719 11.4438 1.80235 11.8938 1.875 12.3321L0.321099 13.6587C0.205307 13.7578 0.122434 13.8898 0.0834984 14.0372C0.044563 14.1846 0.0514102 14.3403 0.10313 14.4837L0.124224 14.5446C0.548442 15.7259 1.17657 16.8157 1.99219 17.7766L2.03438 17.8259C2.13294 17.9417 2.26431 18.0251 2.41117 18.0648C2.55802 18.1046 2.71347 18.0989 2.85704 18.0485L4.77657 17.3665C5.47501 17.9407 6.25547 18.3954 7.09688 18.7118L7.46719 20.7134C7.49495 20.8633 7.56767 21.0012 7.67568 21.1088C7.78368 21.2163 7.92187 21.2885 8.07188 21.3157L8.13516 21.3274C9.36747 21.5489 10.6294 21.5489 11.8617 21.3274L11.925 21.3157C12.075 21.2885 12.2132 21.2163 12.3212 21.1088C12.4292 21.0012 12.5019 20.8633 12.5297 20.7134L12.8977 18.7212C13.7458 18.4033 14.5353 17.9471 15.2344 17.3712L17.1398 18.0485C17.2834 18.0993 17.4389 18.1052 17.5859 18.0654C17.7328 18.0256 17.8642 17.9421 17.9625 17.8259L18.0047 17.7766C18.8203 16.8134 19.4484 15.7259 19.8727 14.5446L19.8938 14.4837C19.9992 14.1954 19.9125 13.8673 19.6758 13.6634ZM16.4766 9.91804C16.5352 10.2719 16.5656 10.6352 16.5656 10.9985C16.5656 11.3618 16.5352 11.7251 16.4766 12.079L16.3219 13.0188L18.0727 14.5165C17.8072 15.1279 17.4722 15.7068 17.0742 16.2415L14.8992 15.4704L14.1633 16.0751C13.6031 16.5344 12.9797 16.8954 12.3047 17.1485L11.4117 17.4837L10.9922 19.7571C10.3302 19.8321 9.66195 19.8321 9 19.7571L8.58047 17.479L7.69454 17.1391C7.02657 16.886 6.40547 16.5251 5.85 16.068L5.11407 15.461L2.925 16.2391C2.52657 15.7024 2.19375 15.1235 1.92657 14.5141L3.6961 13.0024L3.54376 12.0649C3.4875 11.7157 3.45704 11.3548 3.45704 10.9985C3.45704 10.6399 3.48516 10.2813 3.54376 9.9321L3.6961 8.9946L1.92657 7.48289C2.19141 6.87117 2.52657 6.2946 2.925 5.75789L5.11407 6.53601L5.85 5.92898C6.40547 5.47195 7.02657 5.11101 7.69454 4.85789L8.58282 4.52273L9.00235 2.2446C9.66094 2.1696 10.3336 2.1696 10.9945 2.2446L11.4141 4.51804L12.307 4.8532C12.9797 5.10632 13.6055 5.46726 14.1656 5.92664L14.9016 6.53132L17.0766 5.76023C17.475 6.29695 17.8078 6.87585 18.075 7.48523L16.3242 8.98289L16.4766 9.91804ZM10.0008 6.63914C7.72266 6.63914 5.87579 8.48601 5.87579 10.7641C5.87579 13.0423 7.72266 14.8891 10.0008 14.8891C12.2789 14.8891 14.1258 13.0423 14.1258 10.7641C14.1258 8.48601 12.2789 6.63914 10.0008 6.63914ZM11.857 12.6204C11.6136 12.8646 11.3242 13.0582 11.0057 13.1901C10.6871 13.322 10.3456 13.3897 10.0008 13.3891C9.3 13.3891 8.64141 13.1149 8.14454 12.6204C7.90037 12.3769 7.70676 12.0876 7.57482 11.769C7.44289 11.4504 7.37525 11.1089 7.37579 10.7641C7.37579 10.0634 7.65 9.40476 8.14454 8.90789C8.64141 8.41101 9.3 8.13914 10.0008 8.13914C10.7016 8.13914 11.3602 8.41101 11.857 8.90789C12.1012 9.15135 12.2948 9.44069 12.4267 9.75925C12.5587 10.0778 12.6263 10.4193 12.6258 10.7641C12.6258 11.4649 12.3516 12.1235 11.857 12.6204Z" fill="#8E8E93"/>
</svg>
