<svg width="18" height="18" viewBox="0 0 18 18" fill="none" xmlns="http://www.w3.org/2000/svg">
<g id="smile">
<path id="Vector" d="M5.0625 7.40039C5.0625 7.62417 5.15139 7.83878 5.30963 7.99701C5.46786 8.15525 5.68247 8.24414 5.90625 8.24414C6.13003 8.24414 6.34464 8.15525 6.50287 7.99701C6.66111 7.83878 6.75 7.62417 6.75 7.40039C6.75 7.17661 6.66111 6.962 6.50287 6.80377C6.34464 6.64554 6.13003 6.55664 5.90625 6.55664C5.68247 6.55664 5.46786 6.64554 5.30963 6.80377C5.15139 6.962 5.0625 7.17661 5.0625 7.40039ZM11.25 7.40039C11.25 7.62417 11.3389 7.83878 11.4971 7.99701C11.6554 8.15525 11.87 8.24414 12.0938 8.24414C12.3175 8.24414 12.5321 8.15525 12.6904 7.99701C12.8486 7.83878 12.9375 7.62417 12.9375 7.40039C12.9375 7.17661 12.8486 6.962 12.6904 6.80377C12.5321 6.64554 12.3175 6.55664 12.0938 6.55664C11.87 6.55664 11.6554 6.64554 11.4971 6.80377C11.3389 6.962 11.25 7.17661 11.25 7.40039ZM9 1.125C4.65117 1.125 1.125 4.65117 1.125 9C1.125 13.3488 4.65117 16.875 9 16.875C13.3488 16.875 16.875 13.3488 16.875 9C16.875 4.65117 13.3488 1.125 9 1.125ZM13.623 13.623C13.0219 14.2242 12.3223 14.6953 11.5436 15.0258C10.7402 15.3668 9.88418 15.5391 9 15.5391C8.11582 15.5391 7.25977 15.3668 6.45469 15.0258C5.67716 14.6974 4.97089 14.221 4.3752 13.623C3.77402 13.0219 3.30293 12.3223 2.97246 11.5436C2.6332 10.7402 2.46094 9.88418 2.46094 9C2.46094 8.11582 2.6332 7.25977 2.97422 6.45469C3.30259 5.67716 3.77901 4.97089 4.37695 4.3752C4.97813 3.77402 5.67773 3.30293 6.45645 2.97246C7.25977 2.6332 8.11582 2.46094 9 2.46094C9.88418 2.46094 10.7402 2.6332 11.5453 2.97422C12.3228 3.30259 13.0291 3.77901 13.6248 4.37695C14.226 4.97813 14.6971 5.67773 15.0275 6.45645C15.3668 7.25977 15.5391 8.11582 15.5391 9C15.5391 9.88418 15.3668 10.7402 15.0258 11.5453C14.6978 12.3225 14.2213 13.0283 13.623 13.623ZM11.6719 9.36914H10.8264C10.7525 9.36914 10.6893 9.42539 10.684 9.49922C10.6172 10.3693 9.8877 11.0566 9 11.0566C8.1123 11.0566 7.38106 10.3693 7.31602 9.49922C7.31074 9.42539 7.24746 9.36914 7.17363 9.36914H6.32812C6.30905 9.36912 6.29017 9.37297 6.27263 9.38048C6.2551 9.38798 6.23927 9.39897 6.22612 9.41278C6.21296 9.42659 6.20276 9.44294 6.19612 9.46082C6.18948 9.4787 6.18655 9.49775 6.1875 9.5168C6.26484 10.9986 7.49707 12.1816 9 12.1816C10.5029 12.1816 11.7352 10.9986 11.8125 9.5168C11.8135 9.49775 11.8105 9.4787 11.8039 9.46082C11.7972 9.44294 11.787 9.42659 11.7739 9.41278C11.7607 9.39897 11.7449 9.38798 11.7274 9.38048C11.7098 9.37297 11.6909 9.36912 11.6719 9.36914Z" fill="#007AFF"/>
</g>
</svg>
