<svg width="108" height="157" viewBox="0 0 108 157" fill="none" xmlns="http://www.w3.org/2000/svg">
<g filter="url(#filter0_d_1230_30988)">
<path d="M36.783 145.332L4.86054 49.5644C4.34124 48.0065 4.82689 46.2894 6.08528 45.2343L56.904 2.62481C58.6221 1.18421 61.1886 1.43703 62.5927 3.18518L103.036 53.5409C103.656 54.3136 103.968 55.2892 103.91 56.2786L101.095 104.538C101.024 105.756 100.401 106.875 99.4034 107.577L42.8791 147.338C40.6878 148.88 37.6302 147.873 36.783 145.332Z" fill="#F03E3E"/>
</g>
<path d="M40.9782 50.8252C40.8802 51.3152 40.8102 52.1272 40.8102 52.5052C40.7962 53.4012 40.8102 54.4512 40.8942 55.4452C41.0902 57.4472 41.5102 58.8052 42.3782 58.8052C43.0362 58.8052 43.5822 57.1812 43.8482 56.0892L45.2482 57.7692C44.3242 60.1772 43.4562 61.0312 42.3362 61.0312C40.8242 61.0312 39.4942 59.6592 39.1022 55.9352C38.9762 54.6612 38.9482 53.0512 38.9482 52.1972C38.9482 51.8052 38.9342 51.2172 38.8502 50.7972L40.9782 50.8252ZM47.9082 51.1192C49.2242 52.7292 50.2882 56.0752 50.4422 58.2032L48.6082 58.9032C48.3982 56.6772 47.6562 53.4152 46.1442 51.7072L47.9082 51.1192ZM62.3702 50.8532L62.3982 52.5332C60.9562 52.7572 58.7582 53.0232 56.8962 53.1212C56.7142 53.9612 56.4902 54.8432 56.2662 55.5152C57.3862 54.8992 58.4362 54.6472 59.7102 54.6472C61.9502 54.6472 63.4342 55.8512 63.4342 57.6152C63.4342 60.7372 60.4382 61.8572 55.9582 61.3812L55.4682 59.5892C58.5062 60.0792 61.5722 59.7152 61.5722 57.6712C61.5722 56.8452 60.8442 56.1452 59.5002 56.1452C57.9042 56.1452 56.4902 56.7192 55.6642 57.7832C55.5102 57.9652 55.4122 58.1472 55.2722 58.3852L53.6342 57.7972C54.2922 56.5232 54.8522 54.6752 55.2162 53.1492C54.3342 53.1352 53.5222 53.0792 52.8222 53.0092V51.2872C53.6482 51.4272 54.6982 51.5392 55.5382 51.5532C55.5662 51.3432 55.6082 51.1612 55.6222 50.9932C55.6922 50.3912 55.7062 50.0552 55.6922 49.5932L57.6522 49.6772C57.4982 50.1672 57.4282 50.6292 57.3302 51.0912L57.2462 51.5112C58.8282 51.4272 60.7042 51.2172 62.3702 50.8532ZM67.4382 56.4952L69.2582 56.6632C69.1322 57.1672 69.0342 57.6012 69.0342 58.0632C69.0342 58.9452 69.8602 59.5892 71.8622 59.5892C73.7382 59.5892 75.5022 59.3792 76.7342 59.0432L76.7482 61.0032C75.5442 61.2832 73.8782 61.4652 71.9322 61.4652C68.7542 61.4652 67.1722 60.4012 67.1722 58.4972C67.1722 57.6992 67.3262 57.0272 67.4382 56.4952ZM75.1802 49.7612L76.2862 49.3132C76.6362 49.8312 77.1402 50.7132 77.4062 51.2312L76.2722 51.7212C76.1602 51.4972 76.0202 51.2312 75.8802 50.9512V52.6172C74.9142 52.6872 73.1922 52.7852 71.8762 52.7852C70.4202 52.7852 69.2162 52.7152 68.0962 52.6312V50.7832C69.1182 50.8952 70.4062 50.9512 71.8622 50.9512C73.1922 50.9512 74.7182 50.8672 75.7822 50.7692C75.5862 50.4052 75.3762 50.0412 75.1802 49.7612ZM76.8322 49.1312L77.9382 48.6832C78.3162 49.2012 78.8342 50.0972 79.0722 50.5872L77.9662 51.0632C77.6722 50.4752 77.2242 49.6632 76.8322 49.1312Z" fill="white"/>
<g clip-path="url(#clip0_1230_30988)">
<path d="M38.3101 80.1266V78.2766C38.3101 77.8989 38.4045 77.5489 38.5934 77.2266C38.7823 76.9044 39.0434 76.66 39.3767 76.4933C39.5323 76.4155 39.6823 76.3433 39.8267 76.2766C39.9823 76.21 40.1434 76.1489 40.3101 76.0933V80.1266H38.3101ZM40.9767 75.46C40.4212 75.46 39.9489 75.2655 39.5601 74.8766C39.1712 74.4877 38.9767 74.0155 38.9767 73.46C38.9767 72.9044 39.1712 72.4322 39.5601 72.0433C39.9489 71.6544 40.4212 71.46 40.9767 71.46C41.5323 71.46 42.0045 71.6544 42.3934 72.0433C42.7823 72.4322 42.9767 72.9044 42.9767 73.46C42.9767 74.0155 42.7823 74.4877 42.3934 74.8766C42.0045 75.2655 41.5323 75.46 40.9767 75.46ZM40.9767 74.1266C41.1656 74.1266 41.3212 74.0655 41.4434 73.9433C41.5767 73.81 41.6434 73.6489 41.6434 73.46C41.6434 73.2711 41.5767 73.1155 41.4434 72.9933C41.3212 72.86 41.1656 72.7933 40.9767 72.7933C40.7878 72.7933 40.6267 72.86 40.4934 72.9933C40.3712 73.1155 40.3101 73.2711 40.3101 73.46C40.3101 73.6489 40.3712 73.81 40.4934 73.9433C40.6267 74.0655 40.7878 74.1266 40.9767 74.1266ZM40.9767 80.1266V78.26C40.9767 77.8822 41.0712 77.5377 41.2601 77.2266C41.4601 76.9044 41.7212 76.66 42.0434 76.4933C42.7323 76.1488 43.4323 75.8933 44.1434 75.7266C44.8545 75.5489 45.5767 75.46 46.3101 75.46C47.0434 75.46 47.7656 75.5489 48.4767 75.7266C49.1878 75.8933 49.8878 76.1488 50.5767 76.4933C50.8989 76.66 51.1545 76.9044 51.3434 77.2266C51.5434 77.5377 51.6434 77.8822 51.6434 78.26V80.1266H40.9767ZM42.3101 78.7933H50.3101V78.26C50.3101 78.1377 50.2767 78.0266 50.2101 77.9266C50.1545 77.8266 50.0767 77.7488 49.9767 77.6933C49.3767 77.3933 48.7712 77.1711 48.1601 77.0266C47.5489 76.8711 46.9323 76.7933 46.3101 76.7933C45.6878 76.7933 45.0712 76.8711 44.4601 77.0266C43.8489 77.1711 43.2434 77.3933 42.6434 77.6933C42.5434 77.7488 42.4601 77.8266 42.3934 77.9266C42.3378 78.0266 42.3101 78.1377 42.3101 78.26V78.7933ZM46.3101 74.7933C45.5767 74.7933 44.9489 74.5322 44.4267 74.01C43.9045 73.4877 43.6434 72.86 43.6434 72.1266C43.6434 71.3933 43.9045 70.7655 44.4267 70.2433C44.9489 69.7211 45.5767 69.46 46.3101 69.46C47.0434 69.46 47.6712 69.7211 48.1934 70.2433C48.7156 70.7655 48.9767 71.3933 48.9767 72.1266C48.9767 72.86 48.7156 73.4877 48.1934 74.01C47.6712 74.5322 47.0434 74.7933 46.3101 74.7933ZM46.3101 73.46C46.6767 73.46 46.9878 73.3322 47.2434 73.0766C47.5101 72.81 47.6434 72.4933 47.6434 72.1266C47.6434 71.76 47.5101 71.4489 47.2434 71.1933C46.9878 70.9266 46.6767 70.7933 46.3101 70.7933C45.9434 70.7933 45.6267 70.9266 45.3601 71.1933C45.1045 71.4489 44.9767 71.76 44.9767 72.1266C44.9767 72.4933 45.1045 72.81 45.3601 73.0766C45.6267 73.3322 45.9434 73.46 46.3101 73.46ZM51.6434 75.46C51.0878 75.46 50.6156 75.2655 50.2267 74.8766C49.8378 74.4877 49.6434 74.0155 49.6434 73.46C49.6434 72.9044 49.8378 72.4322 50.2267 72.0433C50.6156 71.6544 51.0878 71.46 51.6434 71.46C52.1989 71.46 52.6712 71.6544 53.0601 72.0433C53.4489 72.4322 53.6434 72.9044 53.6434 73.46C53.6434 74.0155 53.4489 74.4877 53.0601 74.8766C52.6712 75.2655 52.1989 75.46 51.6434 75.46ZM51.6434 74.1266C51.8323 74.1266 51.9878 74.0655 52.1101 73.9433C52.2434 73.81 52.3101 73.6489 52.3101 73.46C52.3101 73.2711 52.2434 73.1155 52.1101 72.9933C51.9878 72.86 51.8323 72.7933 51.6434 72.7933C51.4545 72.7933 51.2934 72.86 51.1601 72.9933C51.0378 73.1155 50.9767 73.2711 50.9767 73.46C50.9767 73.6489 51.0378 73.81 51.1601 73.9433C51.2934 74.0655 51.4545 74.1266 51.6434 74.1266ZM52.3101 80.1266V76.0933C52.4767 76.1489 52.6323 76.21 52.7767 76.2766C52.9323 76.3433 53.0878 76.4155 53.2434 76.4933C53.5767 76.66 53.8378 76.9044 54.0267 77.2266C54.2156 77.5489 54.3101 77.8989 54.3101 78.2766V80.1266H52.3101Z" fill="white"/>
</g>
<path d="M62.4351 70.946V78.7932H61.1406V72.4822L59.2231 73.1321V72.0632L62.2793 70.946H62.4351ZM70.75 74.2278V75.5061C70.75 76.1184 70.6891 76.6412 70.5674 77.0745C70.4492 77.5042 70.2773 77.8533 70.0518 78.1218C69.8262 78.3904 69.5558 78.5873 69.2407 78.7126C68.9292 78.838 68.5801 78.9006 68.1934 78.9006C67.8854 78.9006 67.599 78.8612 67.334 78.7825C67.0726 78.7037 66.8363 78.5802 66.625 78.4119C66.4137 78.2436 66.2329 78.0269 66.0825 77.762C65.9357 77.4934 65.8211 77.1729 65.7388 76.8005C65.66 76.4281 65.6206 75.9967 65.6206 75.5061V74.2278C65.6206 73.6119 65.6815 73.0927 65.8032 72.6702C65.925 72.2441 66.0986 71.8985 66.3242 71.6335C66.5498 71.365 66.8184 71.1698 67.1299 71.0481C67.445 70.9264 67.7959 70.8655 68.1826 70.8655C68.4941 70.8655 68.7806 70.9049 69.042 70.9836C69.307 71.0588 69.5433 71.1788 69.751 71.3435C69.9622 71.5082 70.1413 71.7231 70.2881 71.988C70.4385 72.2494 70.5531 72.5663 70.6318 72.9387C70.7106 73.3075 70.75 73.7372 70.75 74.2278ZM69.4556 75.6887V74.0344C69.4556 73.7229 69.4377 73.449 69.4019 73.2126C69.366 72.9727 69.3123 72.7704 69.2407 72.6057C69.1727 72.4374 69.0868 72.3014 68.9829 72.1975C68.8791 72.0901 68.7609 72.0131 68.6284 71.9666C68.4959 71.9164 68.3473 71.8914 68.1826 71.8914C67.9821 71.8914 67.8031 71.9307 67.6455 72.0095C67.488 72.0847 67.3555 72.2065 67.248 72.3748C67.1406 72.5431 67.0583 72.7651 67.001 73.0408C66.9473 73.3129 66.9204 73.6441 66.9204 74.0344V75.6887C66.9204 76.0038 66.9383 76.2813 66.9741 76.5212C67.0099 76.7611 67.0636 76.967 67.1353 77.1389C67.2069 77.3072 67.2928 77.4469 67.3931 77.5579C67.4969 77.6653 67.6151 77.7441 67.7476 77.7942C67.8836 77.8443 68.0322 77.8694 68.1934 77.8694C68.3975 77.8694 68.5783 77.83 68.7358 77.7512C68.8934 77.6724 69.0259 77.5471 69.1333 77.3752C69.2407 77.1998 69.3213 76.9724 69.375 76.6931C69.4287 76.4138 69.4556 76.079 69.4556 75.6887ZM77.502 74.2278V75.5061C77.502 76.1184 77.4411 76.6412 77.3193 77.0745C77.2012 77.5042 77.0293 77.8533 76.8037 78.1218C76.5781 78.3904 76.3078 78.5873 75.9927 78.7126C75.6812 78.838 75.332 78.9006 74.9453 78.9006C74.6374 78.9006 74.3509 78.8612 74.0859 78.7825C73.8245 78.7037 73.5882 78.5802 73.377 78.4119C73.1657 78.2436 72.9849 78.0269 72.8345 77.762C72.6877 77.4934 72.5731 77.1729 72.4907 76.8005C72.4119 76.4281 72.3726 75.9967 72.3726 75.5061V74.2278C72.3726 73.6119 72.4334 73.0927 72.5552 72.6702C72.6769 72.2441 72.8506 71.8985 73.0762 71.6335C73.3018 71.365 73.5703 71.1698 73.8818 71.0481C74.1969 70.9264 74.5479 70.8655 74.9346 70.8655C75.2461 70.8655 75.5326 70.9049 75.7939 70.9836C76.0589 71.0588 76.2952 71.1788 76.5029 71.3435C76.7142 71.5082 76.8932 71.7231 77.04 71.988C77.1904 72.2494 77.305 72.5663 77.3838 72.9387C77.4626 73.3075 77.502 73.7372 77.502 74.2278ZM76.2075 75.6887V74.0344C76.2075 73.7229 76.1896 73.449 76.1538 73.2126C76.118 72.9727 76.0643 72.7704 75.9927 72.6057C75.9246 72.4374 75.8387 72.3014 75.7349 72.1975C75.631 72.0901 75.5129 72.0131 75.3804 71.9666C75.2479 71.9164 75.0993 71.8914 74.9346 71.8914C74.734 71.8914 74.555 71.9307 74.3975 72.0095C74.2399 72.0847 74.1074 72.2065 74 72.3748C73.8926 72.5431 73.8102 72.7651 73.7529 73.0408C73.6992 73.3129 73.6724 73.6441 73.6724 74.0344V75.6887C73.6724 76.0038 73.6903 76.2813 73.7261 76.5212C73.7619 76.7611 73.8156 76.967 73.8872 77.1389C73.9588 77.3072 74.0448 77.4469 74.145 77.5579C74.2489 77.6653 74.367 77.7441 74.4995 77.7942C74.6356 77.8443 74.7842 77.8694 74.9453 77.8694C75.1494 77.8694 75.3302 77.83 75.4878 77.7512C75.6453 77.6724 75.7778 77.5471 75.8853 77.3752C75.9927 77.1998 76.0732 76.9724 76.127 76.6931C76.1807 76.4138 76.2075 76.079 76.2075 75.6887Z" fill="white"/>
<defs>
<filter id="filter0_d_1230_30988" x="0.655273" y="1.68994" width="107.262" height="154.379" filterUnits="userSpaceOnUse" color-interpolation-filters="sRGB">
<feFlood flood-opacity="0" result="BackgroundImageFix"/>
<feColorMatrix in="SourceAlpha" type="matrix" values="0 0 0 0 0 0 0 0 0 0 0 0 0 0 0 0 0 0 127 0" result="hardAlpha"/>
<feOffset dy="4"/>
<feGaussianBlur stdDeviation="2"/>
<feComposite in2="hardAlpha" operator="out"/>
<feColorMatrix type="matrix" values="0 0 0 0 0 0 0 0 0 0 0 0 0 0 0 0 0 0 0.25 0"/>
<feBlend mode="normal" in2="BackgroundImageFix" result="effect1_dropShadow_1230_30988"/>
<feBlend mode="normal" in="SourceGraphic" in2="effect1_dropShadow_1230_30988" result="shape"/>
</filter>
<clipPath id="clip0_1230_30988">
<rect width="16" height="16" fill="white" transform="translate(38.3101 66.7932)"/>
</clipPath>
</defs>
</svg>
